<svg width="512" height="512" viewBox="0 0 512 512" fill="none" xmlns="http://www.w3.org/2000/svg">
  <defs>
    <linearGradient id="popGradient" x1="0%" y1="0%" x2="100%" y2="100%">
      <stop offset="0%" stop-color="#00FFAA" />
      <stop offset="100%" stop-color="#00CCFF" />
    </linearGradient>
  </defs>
  <!-- Iconic Geometric Shape: A stylized 'P' formed by a circle and a precise cutout -->
  <path d="M256 80C161.1 80 80 161.1 80 256C80 350.9 161.1 432 256 432C350.9 432 432 350.9 432 256C432 161.1 350.9 80 256 80ZM256 360C200 360 152 312 152 256C152 199.9 200 152 256 152C312 152 360 199.9 360 256C360 312 312 360 256 360Z" fill="url(#popGradient)"/>
  <circle cx="256" cy="256" r="40" fill="url(#popGradient)"/>
</svg>